<svg xmlns="http://www.w3.org/2000/svg" width="600" height="400"><path d="M255,175L274,126L192,103Z" fill="rgb(205,190,139)" stroke="rgb(205,190,139)" stroke-width="1.51"/><path d="M252,35L178,67L192,103Z" fill="rgb(219,198,139)" stroke="rgb(219,198,139)" stroke-width="1.51"/><path d="M122,131L187,217L192,103Z" fill="rgb(210,193,139)" stroke="rgb(210,193,139)" stroke-width="1.51"/><path d="M192,103L187,217L255,175Z" fill="rgb(204,190,139)" stroke="rgb(204,190,139)" stroke-width="1.51"/><path d="M274,126L252,35L192,103Z" fill="rgb(212,194,139)" stroke="rgb(212,194,139)" stroke-width="1.51"/><path d="M178,67L122,131L192,103Z" fill="rgb(218,198,139)" stroke="rgb(218,198,139)" stroke-width="1.51"/><path d="M274,126L339,119L252,35Z" fill="rgb(206,191,139)" stroke="rgb(206,191,139)" stroke-width="1.51"/><path d="M358,178L339,119L274,126Z" fill="rgb(201,188,139)" stroke="rgb(201,188,139)" stroke-width="1.51"/><path d="M187,217L211,256L255,175Z" fill="rgb(200,188,139)" stroke="rgb(200,188,139)" stroke-width="1.51"/><path d="M255,175L358,178L274,126Z" fill="rgb(196,185,139)" stroke="rgb(196,185,139)" stroke-width="1.51"/><path d="M200,333L211,256L97,301Z" fill="rgb(217,197,139)" stroke="rgb(217,197,139)" stroke-width="1.51"/><path d="M286,294L358,178L255,175Z" fill="rgb(192,183,139)" stroke="rgb(192,183,139)" stroke-width="1.51"/><path d="M178,67L121,48L122,131Z" fill="rgb(222,200,139)" stroke="rgb(222,200,139)" stroke-width="1.51"/><path d="M205,-10L121,48L178,67Z" fill="rgb(227,202,139)" stroke="rgb(227,202,139)" stroke-width="1.51"/><path d="M122,131L90,179L187,217Z" fill="rgb(209,193,139)" stroke="rgb(209,193,139)" stroke-width="1.51"/><path d="M24,133L90,179L122,131Z" fill="rgb(219,198,139)" stroke="rgb(219,198,139)" stroke-width="1.51"/><path d="M252,35L205,-10L178,67Z" fill="rgb(224,201,139)" stroke="rgb(224,201,139)" stroke-width="1.51"/><path d="M339,119L361,34L252,35Z" fill="rgb(211,194,139)" stroke="rgb(211,194,139)" stroke-width="1.51"/><path d="M252,35L289,-34L205,-10Z" fill="rgb(224,201,139)" stroke="rgb(224,201,139)" stroke-width="1.51"/><path d="M397,52L361,34L339,119Z" fill="rgb(216,196,139)" stroke="rgb(216,196,139)" stroke-width="1.51"/><path d="M211,256L286,294L255,175Z" fill="rgb(201,188,139)" stroke="rgb(201,188,139)" stroke-width="1.51"/><path d="M361,34L326,-1L252,35Z" fill="rgb(217,197,139)" stroke="rgb(217,197,139)" stroke-width="1.51"/><path d="M326,-1L289,-34L252,35Z" fill="rgb(220,199,139)" stroke="rgb(220,199,139)" stroke-width="1.51"/><path d="M358,178L432,123L339,119Z" fill="rgb(206,191,139)" stroke="rgb(206,191,139)" stroke-width="1.51"/><path d="M354,299L404,202L358,178Z" fill="rgb(200,188,139)" stroke="rgb(200,188,139)" stroke-width="1.51"/><path d="M361,34L384,-4L326,-1Z" fill="rgb(223,200,139)" stroke="rgb(223,200,139)" stroke-width="1.51"/><path d="M363,-110L287,-75L289,-34Z" fill="rgb(221,199,139)" stroke="rgb(221,199,139)" stroke-width="1.51"/><path d="M432,123L397,52L339,119Z" fill="rgb(214,195,139)" stroke="rgb(214,195,139)" stroke-width="1.51"/><path d="M211,256L267,331L286,294Z" fill="rgb(208,192,139)" stroke="rgb(208,192,139)" stroke-width="1.51"/><path d="M97,301L211,256L187,217Z" fill="rgb(211,194,139)" stroke="rgb(211,194,139)" stroke-width="1.51"/><path d="M286,294L354,299L358,178Z" fill="rgb(201,188,139)" stroke="rgb(201,188,139)" stroke-width="1.51"/><path d="M200,333L267,331L211,256Z" fill="rgb(213,194,139)" stroke="rgb(213,194,139)" stroke-width="1.51"/><path d="M121,48L24,133L122,131Z" fill="rgb(225,201,139)" stroke="rgb(225,201,139)" stroke-width="1.51"/><path d="M90,179L97,301L187,217Z" fill="rgb(212,194,139)" stroke="rgb(212,194,139)" stroke-width="1.51"/><path d="M121,48L28,28L24,133Z" fill="rgb(232,206,139)" stroke="rgb(232,206,139)" stroke-width="1.51"/><path d="M205,-10L87,-14L121,48Z" fill="rgb(234,207,139)" stroke="rgb(234,207,139)" stroke-width="1.51"/><path d="M126,-118L87,-14L205,-10Z" fill="rgb(235,207,139)" stroke="rgb(235,207,139)" stroke-width="1.51"/><path d="M404,202L432,123L358,178Z" fill="rgb(204,190,139)" stroke="rgb(204,190,139)" stroke-width="1.51"/><path d="M335,335L354,299L286,294Z" fill="rgb(208,192,139)" stroke="rgb(208,192,139)" stroke-width="1.51"/><path d="M24,133L23,177L90,179Z" fill="rgb(220,199,139)" stroke="rgb(220,199,139)" stroke-width="1.51"/><path d="M37,270L97,301L90,179Z" fill="rgb(219,198,139)" stroke="rgb(219,198,139)" stroke-width="1.51"/><path d="M397,52L384,-4L361,34Z" fill="rgb(223,200,139)" stroke="rgb(223,200,139)" stroke-width="1.51"/><path d="M468,29L384,-4L397,52Z" fill="rgb(227,203,139)" stroke="rgb(227,203,139)" stroke-width="1.51"/><path d="M289,-34L287,-75L205,-10Z" fill="rgb(223,200,139)" stroke="rgb(223,200,139)" stroke-width="1.51"/><path d="M363,-110L289,-34L326,-1Z" fill="rgb(222,200,139)" stroke="rgb(222,200,139)" stroke-width="1.51"/><path d="M87,-14L28,28L121,48Z" fill="rgb(238,209,139)" stroke="rgb(238,209,139)" stroke-width="1.51"/><path d="M267,331L335,335L286,294Z" fill="rgb(208,192,139)" stroke="rgb(208,192,139)" stroke-width="1.51"/><path d="M318,436L335,335L267,331Z" fill="rgb(215,196,139)" stroke="rgb(215,196,139)" stroke-width="1.51"/><path d="M23,177L37,270L90,179Z" fill="rgb(216,196,139)" stroke="rgb(216,196,139)" stroke-width="1.51"/><path d="M87,-14L51,-28L28,28Z" fill="rgb(243,212,139)" stroke="rgb(243,212,139)" stroke-width="1.51"/><path d="M58,-116L51,-28L87,-14Z" fill="rgb(242,211,139)" stroke="rgb(242,211,139)" stroke-width="1.51"/><path d="M55,377L124,355L97,301Z" fill="rgb(231,205,139)" stroke="rgb(231,205,139)" stroke-width="1.51"/><path d="M97,301L124,355L200,333Z" fill="rgb(225,201,139)" stroke="rgb(225,201,139)" stroke-width="1.51"/><path d="M200,333L245,430L267,331Z" fill="rgb(220,199,139)" stroke="rgb(220,199,139)" stroke-width="1.51"/><path d="M335,335L384,328L354,299Z" fill="rgb(213,195,139)" stroke="rgb(213,195,139)" stroke-width="1.51"/><path d="M354,299L437,277L404,202Z" fill="rgb(208,192,139)" stroke="rgb(208,192,139)" stroke-width="1.51"/><path d="M498,188L485,114L432,123Z" fill="rgb(215,196,139)" stroke="rgb(215,196,139)" stroke-width="1.51"/><path d="M287,-75L212,-115L205,-10Z" fill="rgb(226,202,139)" stroke="rgb(226,202,139)" stroke-width="1.51"/><path d="M384,328L437,277L354,299Z" fill="rgb(213,195,139)" stroke="rgb(213,195,139)" stroke-width="1.51"/><path d="M432,123L468,29L397,52Z" fill="rgb(223,200,139)" stroke="rgb(223,200,139)" stroke-width="1.51"/><path d="M498,188L432,123L404,202Z" fill="rgb(208,192,139)" stroke="rgb(208,192,139)" stroke-width="1.51"/><path d="M384,-4L363,-110L326,-1Z" fill="rgb(225,201,139)" stroke="rgb(225,201,139)" stroke-width="1.51"/><path d="M485,114L468,29L432,123Z" fill="rgb(222,200,139)" stroke="rgb(222,200,139)" stroke-width="1.51"/><path d="M-28,48L-41,135L24,133Z" fill="rgb(233,206,139)" stroke="rgb(233,206,139)" stroke-width="1.51"/><path d="M24,133L-41,135L23,177Z" fill="rgb(227,202,139)" stroke="rgb(227,202,139)" stroke-width="1.51"/><path d="M23,177L-47,211L37,270Z" fill="rgb(222,200,139)" stroke="rgb(222,200,139)" stroke-width="1.51"/><path d="M-28,48L24,133L28,28Z" fill="rgb(237,208,139)" stroke="rgb(237,208,139)" stroke-width="1.51"/><path d="M-13,-49L-28,48L28,28Z" fill="rgb(247,214,139)" stroke="rgb(247,214,139)" stroke-width="1.51"/><path d="M51,-28L-13,-49L28,28Z" fill="rgb(247,214,139)" stroke="rgb(247,214,139)" stroke-width="1.51"/><path d="M212,-115L126,-118L205,-10Z" fill="rgb(231,205,139)" stroke="rgb(231,205,139)" stroke-width="1.51"/><path d="M437,277L498,188L404,202Z" fill="rgb(207,192,139)" stroke="rgb(207,192,139)" stroke-width="1.51"/><path d="M287,-75L363,-110L212,-115Z" fill="rgb(221,199,139)" stroke="rgb(221,199,139)" stroke-width="1.51"/><path d="M212,-115L505,-120L126,-118Z" fill="rgb(221,199,139)" stroke="rgb(221,199,139)" stroke-width="1.51"/><path d="M434,-88L363,-110L384,-4Z" fill="rgb(229,203,139)" stroke="rgb(229,203,139)" stroke-width="1.51"/><path d="M-41,135L-47,211L23,177Z" fill="rgb(223,200,139)" stroke="rgb(223,200,139)" stroke-width="1.51"/><path d="M37,270L55,377L97,301Z" fill="rgb(230,204,139)" stroke="rgb(230,204,139)" stroke-width="1.51"/><path d="M168,450L245,430L200,333Z" fill="rgb(229,203,139)" stroke="rgb(229,203,139)" stroke-width="1.51"/><path d="M335,335L408,399L384,328Z" fill="rgb(220,198,139)" stroke="rgb(220,198,139)" stroke-width="1.51"/><path d="M468,29L489,-1L384,-4Z" fill="rgb(233,206,139)" stroke="rgb(233,206,139)" stroke-width="1.51"/><path d="M544,28L489,-1L468,29Z" fill="rgb(236,208,139)" stroke="rgb(236,208,139)" stroke-width="1.51"/><path d="M544,28L468,29L485,114Z" fill="rgb(230,205,139)" stroke="rgb(230,205,139)" stroke-width="1.51"/><path d="M124,355L168,450L200,333Z" fill="rgb(230,204,139)" stroke="rgb(230,204,139)" stroke-width="1.51"/><path d="M-24,344L55,377L37,270Z" fill="rgb(236,207,139)" stroke="rgb(236,207,139)" stroke-width="1.51"/><path d="M58,-116L-13,-49L51,-28Z" fill="rgb(246,213,139)" stroke="rgb(246,213,139)" stroke-width="1.51"/><path d="M126,-118L58,-116L87,-14Z" fill="rgb(240,210,139)" stroke="rgb(240,210,139)" stroke-width="1.51"/><path d="M489,-1L434,-88L384,-4Z" fill="rgb(233,206,139)" stroke="rgb(233,206,139)" stroke-width="1.51"/><path d="M-47,211L-34,297L37,270Z" fill="rgb(228,203,139)" stroke="rgb(228,203,139)" stroke-width="1.51"/><path d="M498,188L536,172L485,114Z" fill="rgb(216,197,139)" stroke="rgb(216,197,139)" stroke-width="1.51"/><path d="M514,266L536,172L498,188Z" fill="rgb(212,194,139)" stroke="rgb(212,194,139)" stroke-width="1.51"/><path d="M514,337L514,266L437,277Z" fill="rgb(222,200,139)" stroke="rgb(222,200,139)" stroke-width="1.51"/><path d="M437,277L514,266L498,188Z" fill="rgb(214,195,139)" stroke="rgb(214,195,139)" stroke-width="1.51"/><path d="M245,430L318,436L267,331Z" fill="rgb(222,200,139)" stroke="rgb(222,200,139)" stroke-width="1.51"/><path d="M514,337L437,277L384,328Z" fill="rgb(221,199,139)" stroke="rgb(221,199,139)" stroke-width="1.51"/><path d="M536,172L545,148L485,114Z" fill="rgb(220,198,139)" stroke="rgb(220,198,139)" stroke-width="1.51"/><path d="M654,172L545,148L536,172Z" fill="rgb(223,200,139)" stroke="rgb(223,200,139)" stroke-width="1.51"/><path d="M318,436L408,399L335,335Z" fill="rgb(223,200,139)" stroke="rgb(223,200,139)" stroke-width="1.51"/><path d="M245,430L320,479L318,436Z" fill="rgb(220,199,139)" stroke="rgb(220,199,139)" stroke-width="1.51"/><path d="M90,429L168,450L124,355Z" fill="rgb(236,208,139)" stroke="rgb(236,208,139)" stroke-width="1.51"/><path d="M55,377L90,429L124,355Z" fill="rgb(238,209,139)" stroke="rgb(238,209,139)" stroke-width="1.51"/><path d="M39,418L90,429L55,377Z" fill="rgb(243,211,139)" stroke="rgb(243,211,139)" stroke-width="1.51"/><path d="M-47,211L-125,270L-34,297Z" fill="rgb(228,203,139)" stroke="rgb(228,203,139)" stroke-width="1.51"/><path d="M-41,135L-95,185L-47,211Z" fill="rgb(223,200,139)" stroke="rgb(223,200,139)" stroke-width="1.51"/><path d="M-126,151L-95,185L-41,135Z" fill="rgb(226,202,139)" stroke="rgb(226,202,139)" stroke-width="1.51"/><path d="M-102,71L-41,135L-28,48Z" fill="rgb(236,208,139)" stroke="rgb(236,208,139)" stroke-width="1.51"/><path d="M-34,297L-24,344L37,270Z" fill="rgb(235,207,139)" stroke="rgb(235,207,139)" stroke-width="1.51"/><path d="M-106,327L-24,344L-34,297Z" fill="rgb(237,208,139)" stroke="rgb(237,208,139)" stroke-width="1.51"/><path d="M489,-1L534,-77L434,-88Z" fill="rgb(237,208,139)" stroke="rgb(237,208,139)" stroke-width="1.51"/><path d="M545,148L544,28L485,114Z" fill="rgb(227,203,139)" stroke="rgb(227,203,139)" stroke-width="1.51"/><path d="M-109,-49L-102,71L-28,48Z" fill="rgb(245,213,139)" stroke="rgb(245,213,139)" stroke-width="1.51"/><path d="M-24,344L39,418L55,377Z" fill="rgb(244,212,139)" stroke="rgb(244,212,139)" stroke-width="1.51"/><path d="M108,510L189,478L168,450Z" fill="rgb(234,206,139)" stroke="rgb(234,206,139)" stroke-width="1.51"/><path d="M168,450L189,478L245,430Z" fill="rgb(229,204,139)" stroke="rgb(229,204,139)" stroke-width="1.51"/><path d="M108,510L168,450L90,429Z" fill="rgb(237,208,139)" stroke="rgb(237,208,139)" stroke-width="1.51"/><path d="M544,28L545,-7L489,-1Z" fill="rgb(240,210,139)" stroke="rgb(240,210,139)" stroke-width="1.51"/><path d="M645,-1L545,-7L544,28Z" fill="rgb(246,213,139)" stroke="rgb(246,213,139)" stroke-width="1.51"/><path d="M514,266L586,302L536,172Z" fill="rgb(221,199,139)" stroke="rgb(221,199,139)" stroke-width="1.51"/><path d="M408,399L514,337L384,328Z" fill="rgb(226,202,139)" stroke="rgb(226,202,139)" stroke-width="1.51"/><path d="M-95,185L-125,270L-47,211Z" fill="rgb(223,200,139)" stroke="rgb(223,200,139)" stroke-width="1.51"/><path d="M-102,71L-126,151L-41,135Z" fill="rgb(231,205,139)" stroke="rgb(231,205,139)" stroke-width="1.51"/><path d="M469,440L545,346L514,337Z" fill="rgb(236,208,139)" stroke="rgb(236,208,139)" stroke-width="1.51"/><path d="M318,436L320,479L408,399Z" fill="rgb(224,201,139)" stroke="rgb(224,201,139)" stroke-width="1.51"/><path d="M237,493L320,479L245,430Z" fill="rgb(223,200,139)" stroke="rgb(223,200,139)" stroke-width="1.51"/><path d="M189,478L237,493L245,430Z" fill="rgb(227,202,139)" stroke="rgb(227,202,139)" stroke-width="1.51"/><path d="M545,-7L534,-77L489,-1Z" fill="rgb(241,210,139)" stroke="rgb(241,210,139)" stroke-width="1.51"/><path d="M434,-88L505,-120L363,-110Z" fill="rgb(233,206,139)" stroke="rgb(233,206,139)" stroke-width="1.51"/><path d="M-126,151L-125,270L-95,185Z" fill="rgb(220,198,139)" stroke="rgb(220,198,139)" stroke-width="1.51"/><path d="M-40,448L48,471L39,418Z" fill="rgb(247,214,139)" stroke="rgb(247,214,139)" stroke-width="1.51"/><path d="M-13,-49L-109,-49L-28,48Z" fill="rgb(249,215,139)" stroke="rgb(249,215,139)" stroke-width="1.51"/><path d="M-102,71L-122,-84L-126,151Z" fill="rgb(242,211,139)" stroke="rgb(242,211,139)" stroke-width="1.51"/><path d="M58,-116L-48,-122L-13,-49Z" fill="rgb(249,215,139)" stroke="rgb(249,215,139)" stroke-width="1.51"/><path d="M126,-118L-48,-122L58,-116Z" fill="rgb(244,212,139)" stroke="rgb(244,212,139)" stroke-width="1.51"/><path d="M534,-77L505,-120L434,-88Z" fill="rgb(238,209,139)" stroke="rgb(238,209,139)" stroke-width="1.51"/><path d="M363,-110L505,-120L212,-115Z" fill="rgb(225,202,139)" stroke="rgb(225,202,139)" stroke-width="1.51"/><path d="M126,-118L505,-120L-48,-122Z" fill="rgb(230,204,139)" stroke="rgb(230,204,139)" stroke-width="1.51"/><path d="M39,418L48,471L90,429Z" fill="rgb(243,211,139)" stroke="rgb(243,211,139)" stroke-width="1.51"/><path d="M189,478L108,510L237,493Z" fill="rgb(231,205,139)" stroke="rgb(231,205,139)" stroke-width="1.51"/><path d="M-40,448L39,418L-24,344Z" fill="rgb(249,215,139)" stroke="rgb(249,215,139)" stroke-width="1.51"/><path d="M514,337L545,346L514,266Z" fill="rgb(229,204,139)" stroke="rgb(229,204,139)" stroke-width="1.51"/><path d="M469,440L514,337L408,399Z" fill="rgb(234,207,139)" stroke="rgb(234,207,139)" stroke-width="1.51"/><path d="M-48,-122L-109,-49L-13,-49Z" fill="rgb(249,215,139)" stroke="rgb(249,215,139)" stroke-width="1.51"/><path d="M-125,270L-106,327L-34,297Z" fill="rgb(234,206,139)" stroke="rgb(234,206,139)" stroke-width="1.51"/><path d="M417,515L469,440L408,399Z" fill="rgb(232,205,139)" stroke="rgb(232,205,139)" stroke-width="1.51"/><path d="M48,471L108,510L90,429Z" fill="rgb(241,210,139)" stroke="rgb(241,210,139)" stroke-width="1.51"/><path d="M545,346L586,302L514,266Z" fill="rgb(230,204,139)" stroke="rgb(230,204,139)" stroke-width="1.51"/><path d="M545,148L662,111L544,28Z" fill="rgb(233,206,139)" stroke="rgb(233,206,139)" stroke-width="1.51"/><path d="M581,405L586,302L545,346Z" fill="rgb(238,209,139)" stroke="rgb(238,209,139)" stroke-width="1.51"/><path d="M48,471L-12,518L108,510Z" fill="rgb(244,212,139)" stroke="rgb(244,212,139)" stroke-width="1.51"/><path d="M-119,419L-40,448L-24,344Z" fill="rgb(249,215,139)" stroke="rgb(249,215,139)" stroke-width="1.51"/><path d="M-48,-122L-122,-84L-109,-49Z" fill="rgb(249,215,139)" stroke="rgb(249,215,139)" stroke-width="1.51"/><path d="M-109,-49L-122,-84L-102,71Z" fill="rgb(249,215,139)" stroke="rgb(249,215,139)" stroke-width="1.51"/><path d="M469,440L581,405L545,346Z" fill="rgb(241,210,139)" stroke="rgb(241,210,139)" stroke-width="1.51"/><path d="M320,479L417,515L408,399Z" fill="rgb(227,203,139)" stroke="rgb(227,203,139)" stroke-width="1.51"/><path d="M237,493L417,515L320,479Z" fill="rgb(222,200,139)" stroke="rgb(222,200,139)" stroke-width="1.51"/><path d="M108,510L417,515L237,493Z" fill="rgb(224,201,139)" stroke="rgb(224,201,139)" stroke-width="1.51"/><path d="M657,264L654,172L536,172Z" fill="rgb(220,198,139)" stroke="rgb(220,198,139)" stroke-width="1.51"/><path d="M545,-7L632,-98L534,-77Z" fill="rgb(246,213,139)" stroke="rgb(246,213,139)" stroke-width="1.51"/><path d="M654,172L662,111L545,148Z" fill="rgb(228,203,139)" stroke="rgb(228,203,139)" stroke-width="1.51"/><path d="M534,-77L632,-98L505,-120Z" fill="rgb(244,212,139)" stroke="rgb(244,212,139)" stroke-width="1.51"/><path d="M664,40L645,-1L544,28Z" fill="rgb(245,213,139)" stroke="rgb(245,213,139)" stroke-width="1.51"/><path d="M586,302L657,264L536,172Z" fill="rgb(226,202,139)" stroke="rgb(226,202,139)" stroke-width="1.51"/><path d="M576,496L581,405L469,440Z" fill="rgb(243,212,139)" stroke="rgb(243,212,139)" stroke-width="1.51"/><path d="M-106,327L-119,419L-24,344Z" fill="rgb(243,212,139)" stroke="rgb(243,212,139)" stroke-width="1.51"/><path d="M-40,448L-12,518L48,471Z" fill="rgb(249,215,139)" stroke="rgb(249,215,139)" stroke-width="1.51"/><path d="M-125,270L-119,419L-106,327Z" fill="rgb(240,210,139)" stroke="rgb(240,210,139)" stroke-width="1.51"/><path d="M662,111L664,40L544,28Z" fill="rgb(240,210,139)" stroke="rgb(240,210,139)" stroke-width="1.51"/><path d="M660,331L657,264L586,302Z" fill="rgb(234,206,139)" stroke="rgb(234,206,139)" stroke-width="1.51"/><path d="M654,172L685,150L662,111Z" fill="rgb(228,203,139)" stroke="rgb(228,203,139)" stroke-width="1.51"/><path d="M-129,482L-12,518L-40,448Z" fill="rgb(249,215,139)" stroke="rgb(249,215,139)" stroke-width="1.51"/><path d="M108,510L500,524L417,515Z" fill="rgb(223,201,139)" stroke="rgb(223,201,139)" stroke-width="1.51"/><path d="M662,111L737,27L664,40Z" fill="rgb(240,210,139)" stroke="rgb(240,210,139)" stroke-width="1.51"/><path d="M688,202L685,150L654,172Z" fill="rgb(223,200,139)" stroke="rgb(223,200,139)" stroke-width="1.51"/><path d="M657,264L688,202L654,172Z" fill="rgb(221,199,139)" stroke="rgb(221,199,139)" stroke-width="1.51"/><path d="M645,-1L632,-98L545,-7Z" fill="rgb(249,215,139)" stroke="rgb(249,215,139)" stroke-width="1.51"/><path d="M708,-35L632,-98L645,-1Z" fill="rgb(249,215,139)" stroke="rgb(249,215,139)" stroke-width="1.51"/><path d="M417,515L500,524L469,440Z" fill="rgb(235,207,139)" stroke="rgb(235,207,139)" stroke-width="1.51"/><path d="M-12,518L500,524L108,510Z" fill="rgb(229,204,139)" stroke="rgb(229,204,139)" stroke-width="1.51"/><path d="M657,264L725,298L688,202Z" fill="rgb(227,203,139)" stroke="rgb(227,203,139)" stroke-width="1.51"/><path d="M581,405L660,331L586,302Z" fill="rgb(241,210,139)" stroke="rgb(241,210,139)" stroke-width="1.51"/><path d="M612,444L660,331L581,405Z" fill="rgb(248,214,139)" stroke="rgb(248,214,139)" stroke-width="1.51"/><path d="M576,496L612,444L581,405Z" fill="rgb(248,214,139)" stroke="rgb(248,214,139)" stroke-width="1.51"/><path d="M-126,151L-129,482L-125,270Z" fill="rgb(234,207,139)" stroke="rgb(234,207,139)" stroke-width="1.51"/><path d="M-125,270L-129,482L-119,419Z" fill="rgb(247,214,139)" stroke="rgb(247,214,139)" stroke-width="1.51"/><path d="M-119,419L-129,482L-40,448Z" fill="rgb(249,215,139)" stroke="rgb(249,215,139)" stroke-width="1.51"/><path d="M500,524L576,496L469,440Z" fill="rgb(241,210,139)" stroke="rgb(241,210,139)" stroke-width="1.51"/><path d="M737,27L662,111L685,150Z" fill="rgb(235,207,139)" stroke="rgb(235,207,139)" stroke-width="1.51"/><path d="M737,27L708,-35L664,40Z" fill="rgb(247,214,139)" stroke="rgb(247,214,139)" stroke-width="1.51"/><path d="M664,40L708,-35L645,-1Z" fill="rgb(249,215,139)" stroke="rgb(249,215,139)" stroke-width="1.51"/><path d="M688,202L737,27L685,150Z" fill="rgb(230,204,139)" stroke="rgb(230,204,139)" stroke-width="1.51"/><path d="M725,298L737,27L688,202Z" fill="rgb(223,200,139)" stroke="rgb(223,200,139)" stroke-width="1.51"/><path d="M660,331L725,298L657,264Z" fill="rgb(234,206,139)" stroke="rgb(234,206,139)" stroke-width="1.51"/><path d="M732,353L725,298L660,331Z" fill="rgb(238,209,139)" stroke="rgb(238,209,139)" stroke-width="1.51"/><path d="M732,353L660,331L730,413Z" fill="rgb(244,212,139)" stroke="rgb(244,212,139)" stroke-width="1.51"/><path d="M576,496L633,501L612,444Z" fill="rgb(249,215,139)" stroke="rgb(249,215,139)" stroke-width="1.51"/><path d="M500,524L633,501L576,496Z" fill="rgb(246,213,139)" stroke="rgb(246,213,139)" stroke-width="1.51"/><path d="M730,413L660,331L612,444Z" fill="rgb(248,214,139)" stroke="rgb(248,214,139)" stroke-width="1.51"/><path d="M725,298L732,353L737,27Z" fill="rgb(223,200,139)" stroke="rgb(223,200,139)" stroke-width="1.51"/><path d="M708,-35L735,-93L632,-98Z" fill="rgb(249,215,139)" stroke="rgb(249,215,139)" stroke-width="1.51"/><path d="M632,-98L735,-93L505,-120Z" fill="rgb(249,215,139)" stroke="rgb(249,215,139)" stroke-width="1.51"/><path d="M737,27L735,-93L708,-35Z" fill="rgb(249,215,139)" stroke="rgb(249,215,139)" stroke-width="1.51"/><path d="M709,508L730,413L612,444Z" fill="rgb(249,215,139)" stroke="rgb(249,215,139)" stroke-width="1.51"/><path d="M633,501L709,508L612,444Z" fill="rgb(249,215,139)" stroke="rgb(249,215,139)" stroke-width="1.51"/><path d="M500,524L709,508L633,501Z" fill="rgb(249,215,139)" stroke="rgb(249,215,139)" stroke-width="1.51"/></svg>